<svg width="1091px" height="908px"
 viewBox="0.00 0.00 1091.13 908.00" xmlns="http://www.w3.org/2000/svg" xmlns:xlink="http://www.w3.org/1999/xlink">
<g id="graph0" class="graph" transform="scale(1.0 1.0) rotate(0.0) translate(4.0 904.0)">
<title>G</title>
<polygon fill="white" stroke="none" points="-4,4 -4,-904 1087.13,-904 1087.13,4 -4,4"/>
<!-- Expr0 -->
<g id="node1" class="node">
<title>Expr0</title>
<ellipse fill="none" stroke="black" cx="491.6" cy="-882" rx="28.61" ry="18"/>
<text text-anchor="middle" x="491.6" y="-876.58" font-family="Times New Roman,serif" font-size="14.00">Expr</text>
</g>
<!-- Mul1 -->
<g id="node2" class="node">
<title>Mul1</title>
<ellipse fill="none" stroke="black" cx="433.6" cy="-810" rx="27" ry="18"/>
<text text-anchor="middle" x="433.6" y="-804.58" font-family="Times New Roman,serif" font-size="14.00">Mul</text>
</g>
<!-- Expr0&#45;&gt;Mul1 -->
<g id="edge1" class="edge">
<title>Expr0&#45;&gt;Mul1</title>
<path fill="none" stroke="black" d="M478.73,-865.46C471.27,-856.46 461.72,-844.93 453.33,-834.81"/>
<polygon fill="black" stroke="black" points="456.08,-832.64 447.01,-827.18 450.69,-837.11 456.08,-832.64"/>
</g>
<!-- ExprContinuous2 -->
<g id="node3" class="node">
<title>ExprContinuous2</title>
<ellipse fill="none" stroke="black" cx="550.6" cy="-810" rx="71.52" ry="18"/>
<text text-anchor="middle" x="550.6" y="-804.58" font-family="Times New Roman,serif" font-size="14.00">ExprContinuous</text>
</g>
<!-- Expr0&#45;&gt;ExprContinuous2 -->
<g id="edge2" class="edge">
<title>Expr0&#45;&gt;ExprContinuous2</title>
<path fill="none" stroke="black" d="M504.41,-865.81C511.67,-857.19 520.95,-846.18 529.29,-836.29"/>
<polygon fill="black" stroke="black" points="531.84,-838.69 535.61,-828.79 526.49,-834.18 531.84,-838.69"/>
</g>
<!-- Atom3 -->
<g id="node4" class="node">
<title>Atom3</title>
<ellipse fill="none" stroke="black" cx="374.6" cy="-738" rx="31.6" ry="18"/>
<text text-anchor="middle" x="374.6" y="-732.58" font-family="Times New Roman,serif" font-size="14.00">Atom</text>
</g>
<!-- Mul1&#45;&gt;Atom3 -->
<g id="edge3" class="edge">
<title>Mul1&#45;&gt;Atom3</title>
<path fill="none" stroke="black" d="M420.8,-793.81C413.25,-784.85 403.53,-773.32 394.95,-763.14"/>
<polygon fill="black" stroke="black" points="397.89,-761.19 388.76,-755.8 392.53,-765.7 397.89,-761.19"/>
</g>
<!-- MulContinuous4 -->
<g id="node5" class="node">
<title>MulContinuous4</title>
<ellipse fill="none" stroke="black" cx="518.6" cy="-738" rx="68.03" ry="18"/>
<text text-anchor="middle" x="518.6" y="-732.58" font-family="Times New Roman,serif" font-size="14.00">MulContinuous</text>
</g>
<!-- Mul1&#45;&gt;MulContinuous4 -->
<g id="edge4" class="edge">
<title>Mul1&#45;&gt;MulContinuous4</title>
<path fill="none" stroke="black" d="M449.99,-795.5C461.2,-786.27 476.37,-773.78 489.59,-762.89"/>
<polygon fill="black" stroke="black" points="491.7,-765.69 497.2,-756.63 487.25,-760.28 491.7,-765.69"/>
</g>
<!-- Open5 -->
<g id="node6" class="node">
<title>Open5</title>
<ellipse fill="none" stroke="black" cx="244.6" cy="-666" rx="31.1" ry="18"/>
<text text-anchor="middle" x="244.6" y="-660.58" font-family="Times New Roman,serif" font-size="14.00">Open</text>
</g>
<!-- Atom3&#45;&gt;Open5 -->
<g id="edge5" class="edge">
<title>Atom3&#45;&gt;Open5</title>
<path fill="none" stroke="black" d="M352.26,-724.97C331.39,-713.73 300.02,-696.84 276.52,-684.18"/>
<polygon fill="black" stroke="black" points="278.46,-681.25 267.99,-679.59 275.14,-687.42 278.46,-681.25"/>
</g>
<!-- Expr6 -->
<g id="node7" class="node">
<title>Expr6</title>
<ellipse fill="none" stroke="black" cx="322.6" cy="-666" rx="28.61" ry="18"/>
<text text-anchor="middle" x="322.6" y="-660.58" font-family="Times New Roman,serif" font-size="14.00">Expr</text>
</g>
<!-- Atom3&#45;&gt;Expr6 -->
<g id="edge6" class="edge">
<title>Atom3&#45;&gt;Expr6</title>
<path fill="none" stroke="black" d="M362.8,-721.12C356.42,-712.52 348.39,-701.72 341.19,-692.02"/>
<polygon fill="black" stroke="black" points="344.03,-689.98 335.26,-684.04 338.41,-694.15 344.03,-689.98"/>
</g>
<!-- Close7 -->
<g id="node8" class="node">
<title>Close7</title>
<ellipse fill="none" stroke="black" cx="401.6" cy="-666" rx="32.1" ry="18"/>
<text text-anchor="middle" x="401.6" y="-660.58" font-family="Times New Roman,serif" font-size="14.00">Close</text>
</g>
<!-- Atom3&#45;&gt;Close7 -->
<g id="edge7" class="edge">
<title>Atom3&#45;&gt;Close7</title>
<path fill="none" stroke="black" d="M381.14,-720.05C384.12,-712.32 387.73,-702.96 391.09,-694.27"/>
<polygon fill="black" stroke="black" points="394.25,-695.79 394.58,-685.2 387.72,-693.27 394.25,-695.79"/>
</g>
<!-- Multiply19 -->
<g id="node20" class="node">
<title>Multiply19</title>
<ellipse fill="none" stroke="black" cx="492.6" cy="-666" rx="41.08" ry="18"/>
<text text-anchor="middle" x="492.6" y="-660.58" font-family="Times New Roman,serif" font-size="14.00">Multiply</text>
</g>
<!-- MulContinuous4&#45;&gt;Multiply19 -->
<g id="edge19" class="edge">
<title>MulContinuous4&#45;&gt;Multiply19</title>
<path fill="none" stroke="black" d="M512.18,-719.7C509.37,-712.15 506.02,-703.12 502.88,-694.68"/>
<polygon fill="black" stroke="black" points="506.25,-693.68 499.48,-685.52 499.68,-696.12 506.25,-693.68"/>
</g>
<!-- Atom20 -->
<g id="node21" class="node">
<title>Atom20</title>
<ellipse fill="none" stroke="black" cx="583.6" cy="-666" rx="31.6" ry="18"/>
<text text-anchor="middle" x="583.6" y="-660.58" font-family="Times New Roman,serif" font-size="14.00">Atom</text>
</g>
<!-- MulContinuous4&#45;&gt;Atom20 -->
<g id="edge20" class="edge">
<title>MulContinuous4&#45;&gt;Atom20</title>
<path fill="none" stroke="black" d="M534.34,-720.05C542.51,-711.26 552.62,-700.36 561.56,-690.74"/>
<polygon fill="black" stroke="black" points="564.07,-693.18 568.31,-683.47 558.94,-688.41 564.07,-693.18"/>
</g>
<!-- MulContinuous21 -->
<g id="node22" class="node">
<title>MulContinuous21</title>
<ellipse fill="none" stroke="black" cx="701.6" cy="-666" rx="68.03" ry="18"/>
<text text-anchor="middle" x="701.6" y="-660.58" font-family="Times New Roman,serif" font-size="14.00">MulContinuous</text>
</g>
<!-- MulContinuous4&#45;&gt;MulContinuous21 -->
<g id="edge21" class="edge">
<title>MulContinuous4&#45;&gt;MulContinuous21</title>
<path fill="none" stroke="black" d="M556.08,-722.67C584.23,-711.9 623.02,-697.06 653.47,-685.41"/>
<polygon fill="black" stroke="black" points="654.36,-688.82 662.45,-681.98 651.86,-682.28 654.36,-688.82"/>
</g>
<!-- Mul8 -->
<g id="node9" class="node">
<title>Mul8</title>
<ellipse fill="none" stroke="black" cx="149.6" cy="-594" rx="27" ry="18"/>
<text text-anchor="middle" x="149.6" y="-588.58" font-family="Times New Roman,serif" font-size="14.00">Mul</text>
</g>
<!-- Expr6&#45;&gt;Mul8 -->
<g id="edge8" class="edge">
<title>Expr6&#45;&gt;Mul8</title>
<path fill="none" stroke="black" d="M299.77,-654.58C294.79,-652.36 289.53,-650.07 284.6,-648 250.32,-633.61 210.67,-618.19 183.26,-607.71"/>
<polygon fill="black" stroke="black" points="184.67,-604.51 174.08,-604.22 182.18,-611.05 184.67,-604.51"/>
</g>
<!-- ExprContinuous9 -->
<g id="node10" class="node">
<title>ExprContinuous9</title>
<ellipse fill="none" stroke="black" cx="324.6" cy="-594" rx="71.52" ry="18"/>
<text text-anchor="middle" x="324.6" y="-588.58" font-family="Times New Roman,serif" font-size="14.00">ExprContinuous</text>
</g>
<!-- Expr6&#45;&gt;ExprContinuous9 -->
<g id="edge9" class="edge">
<title>Expr6&#45;&gt;ExprContinuous9</title>
<path fill="none" stroke="black" d="M323.1,-647.7C323.31,-640.41 323.55,-631.73 323.79,-623.54"/>
<polygon fill="black" stroke="black" points="327.28,-623.71 324.07,-613.62 320.29,-623.51 327.28,-623.71"/>
</g>
<!-- Atom10 -->
<g id="node11" class="node">
<title>Atom10</title>
<ellipse fill="none" stroke="black" cx="31.6" cy="-522" rx="31.6" ry="18"/>
<text text-anchor="middle" x="31.6" y="-516.58" font-family="Times New Roman,serif" font-size="14.00">Atom</text>
</g>
<!-- Mul8&#45;&gt;Atom10 -->
<g id="edge10" class="edge">
<title>Mul8&#45;&gt;Atom10</title>
<path fill="none" stroke="black" d="M129.85,-581.28C111.58,-570.45 84.13,-554.16 62.88,-541.55"/>
<polygon fill="black" stroke="black" points="64.7,-538.57 54.32,-536.48 61.13,-544.59 64.7,-538.57"/>
</g>
<!-- MulContinuous11 -->
<g id="node12" class="node">
<title>MulContinuous11</title>
<ellipse fill="none" stroke="black" cx="149.6" cy="-522" rx="68.03" ry="18"/>
<text text-anchor="middle" x="149.6" y="-516.58" font-family="Times New Roman,serif" font-size="14.00">MulContinuous</text>
</g>
<!-- Mul8&#45;&gt;MulContinuous11 -->
<g id="edge11" class="edge">
<title>Mul8&#45;&gt;MulContinuous11</title>
<path fill="none" stroke="black" d="M149.6,-575.7C149.6,-568.41 149.6,-559.73 149.6,-551.54"/>
<polygon fill="black" stroke="black" points="153.1,-551.62 149.6,-541.62 146.1,-551.62 153.1,-551.62"/>
</g>
<!-- Plus13 -->
<g id="node14" class="node">
<title>Plus13</title>
<ellipse fill="none" stroke="black" cx="262.6" cy="-522" rx="27" ry="18"/>
<text text-anchor="middle" x="262.6" y="-516.58" font-family="Times New Roman,serif" font-size="14.00">Plus</text>
</g>
<!-- ExprContinuous9&#45;&gt;Plus13 -->
<g id="edge13" class="edge">
<title>ExprContinuous9&#45;&gt;Plus13</title>
<path fill="none" stroke="black" d="M309.59,-576.05C301.69,-567.13 291.88,-556.06 283.27,-546.33"/>
<polygon fill="black" stroke="black" points="286.04,-544.19 276.79,-539.02 280.8,-548.83 286.04,-544.19"/>
</g>
<!-- Mul14 -->
<g id="node15" class="node">
<title>Mul14</title>
<ellipse fill="none" stroke="black" cx="334.6" cy="-522" rx="27" ry="18"/>
<text text-anchor="middle" x="334.6" y="-516.58" font-family="Times New Roman,serif" font-size="14.00">Mul</text>
</g>
<!-- ExprContinuous9&#45;&gt;Mul14 -->
<g id="edge14" class="edge">
<title>ExprContinuous9&#45;&gt;Mul14</title>
<path fill="none" stroke="black" d="M327.07,-575.7C328.13,-568.32 329.39,-559.52 330.57,-551.25"/>
<polygon fill="black" stroke="black" points="334,-552 331.95,-541.6 327.07,-551.01 334,-552"/>
</g>
<!-- ExprContinuous15 -->
<g id="node16" class="node">
<title>ExprContinuous15</title>
<ellipse fill="none" stroke="black" cx="451.6" cy="-522" rx="71.52" ry="18"/>
<text text-anchor="middle" x="451.6" y="-516.58" font-family="Times New Roman,serif" font-size="14.00">ExprContinuous</text>
</g>
<!-- ExprContinuous9&#45;&gt;ExprContinuous15 -->
<g id="edge15" class="edge">
<title>ExprContinuous9&#45;&gt;ExprContinuous15</title>
<path fill="none" stroke="black" d="M353.42,-577.12C371.04,-567.41 393.8,-554.86 412.96,-544.3"/>
<polygon fill="black" stroke="black" points="414.51,-547.44 421.57,-539.55 411.13,-541.31 414.51,-547.44"/>
</g>
<!-- 112 -->
<g id="node13" class="node">
<title>112</title>
<ellipse fill="none" stroke="black" cx="31.6" cy="-450" rx="27" ry="18"/>
<text text-anchor="middle" x="31.6" y="-444.57" font-family="Times New Roman,serif" font-size="14.00">1</text>
</g>
<!-- Atom10&#45;&gt;112 -->
<g id="edge12" class="edge">
<title>Atom10&#45;&gt;112</title>
<path fill="none" stroke="black" d="M31.6,-503.7C31.6,-496.41 31.6,-487.73 31.6,-479.54"/>
<polygon fill="black" stroke="black" points="35.1,-479.62 31.6,-469.62 28.1,-479.62 35.1,-479.62"/>
</g>
<!-- Atom16 -->
<g id="node17" class="node">
<title>Atom16</title>
<ellipse fill="none" stroke="black" cx="221.6" cy="-450" rx="31.6" ry="18"/>
<text text-anchor="middle" x="221.6" y="-444.57" font-family="Times New Roman,serif" font-size="14.00">Atom</text>
</g>
<!-- Mul14&#45;&gt;Atom16 -->
<g id="edge16" class="edge">
<title>Mul14&#45;&gt;Atom16</title>
<path fill="none" stroke="black" d="M315.18,-508.97C297.8,-498.2 272.03,-482.24 251.94,-469.79"/>
<polygon fill="black" stroke="black" points="253.93,-466.91 243.59,-464.62 250.25,-472.86 253.93,-466.91"/>
</g>
<!-- MulContinuous17 -->
<g id="node18" class="node">
<title>MulContinuous17</title>
<ellipse fill="none" stroke="black" cx="339.6" cy="-450" rx="68.03" ry="18"/>
<text text-anchor="middle" x="339.6" y="-444.57" font-family="Times New Roman,serif" font-size="14.00">MulContinuous</text>
</g>
<!-- Mul14&#45;&gt;MulContinuous17 -->
<g id="edge17" class="edge">
<title>Mul14&#45;&gt;MulContinuous17</title>
<path fill="none" stroke="black" d="M335.84,-503.7C336.36,-496.41 336.98,-487.73 337.56,-479.54"/>
<polygon fill="black" stroke="black" points="341.05,-479.84 338.27,-469.61 334.07,-479.34 341.05,-479.84"/>
</g>
<!-- 218 -->
<g id="node19" class="node">
<title>218</title>
<ellipse fill="none" stroke="black" cx="221.6" cy="-378" rx="27" ry="18"/>
<text text-anchor="middle" x="221.6" y="-372.57" font-family="Times New Roman,serif" font-size="14.00">2</text>
</g>
<!-- Atom16&#45;&gt;218 -->
<g id="edge18" class="edge">
<title>Atom16&#45;&gt;218</title>
<path fill="none" stroke="black" d="M221.6,-431.7C221.6,-424.41 221.6,-415.73 221.6,-407.54"/>
<polygon fill="black" stroke="black" points="225.1,-407.62 221.6,-397.62 218.1,-407.62 225.1,-407.62"/>
</g>
<!-- sin22 -->
<g id="node23" class="node">
<title>sin22</title>
<ellipse fill="none" stroke="black" cx="505.6" cy="-594" rx="27" ry="18"/>
<text text-anchor="middle" x="505.6" y="-588.58" font-family="Times New Roman,serif" font-size="14.00">sin</text>
</g>
<!-- Atom20&#45;&gt;sin22 -->
<g id="edge22" class="edge">
<title>Atom20&#45;&gt;sin22</title>
<path fill="none" stroke="black" d="M567.06,-650.15C556.19,-640.4 541.8,-627.48 529.67,-616.6"/>
<polygon fill="black" stroke="black" points="532.23,-614.19 522.45,-610.12 527.55,-619.4 532.23,-614.19"/>
</g>
<!-- Open23 -->
<g id="node24" class="node">
<title>Open23</title>
<ellipse fill="none" stroke="black" cx="581.6" cy="-594" rx="31.1" ry="18"/>
<text text-anchor="middle" x="581.6" y="-588.58" font-family="Times New Roman,serif" font-size="14.00">Open</text>
</g>
<!-- Atom20&#45;&gt;Open23 -->
<g id="edge23" class="edge">
<title>Atom20&#45;&gt;Open23</title>
<path fill="none" stroke="black" d="M583.11,-647.7C582.9,-640.41 582.65,-631.73 582.42,-623.54"/>
<polygon fill="black" stroke="black" points="585.92,-623.51 582.13,-613.62 578.92,-623.71 585.92,-623.51"/>
</g>
<!-- Expr24 -->
<g id="node25" class="node">
<title>Expr24</title>
<ellipse fill="none" stroke="black" cx="659.6" cy="-594" rx="28.61" ry="18"/>
<text text-anchor="middle" x="659.6" y="-588.58" font-family="Times New Roman,serif" font-size="14.00">Expr</text>
</g>
<!-- Atom20&#45;&gt;Expr24 -->
<g id="edge24" class="edge">
<title>Atom20&#45;&gt;Expr24</title>
<path fill="none" stroke="black" d="M599.72,-650.15C610.14,-640.56 623.88,-627.9 635.58,-617.13"/>
<polygon fill="black" stroke="black" points="637.93,-619.72 642.92,-610.37 633.19,-614.57 637.93,-619.72"/>
</g>
<!-- Close25 -->
<g id="node26" class="node">
<title>Close25</title>
<ellipse fill="none" stroke="black" cx="738.6" cy="-594" rx="32.1" ry="18"/>
<text text-anchor="middle" x="738.6" y="-588.58" font-family="Times New Roman,serif" font-size="14.00">Close</text>
</g>
<!-- Atom20&#45;&gt;Close25 -->
<g id="edge25" class="edge">
<title>Atom20&#45;&gt;Close25</title>
<path fill="none" stroke="black" d="M607.82,-654.06C633.6,-642.42 674.64,-623.89 703.86,-610.69"/>
<polygon fill="black" stroke="black" points="704.99,-614.02 712.66,-606.71 702.11,-607.64 704.99,-614.02"/>
</g>
<!-- Mul26 -->
<g id="node27" class="node">
<title>Mul26</title>
<ellipse fill="none" stroke="black" cx="658.6" cy="-522" rx="27" ry="18"/>
<text text-anchor="middle" x="658.6" y="-516.58" font-family="Times New Roman,serif" font-size="14.00">Mul</text>
</g>
<!-- Expr24&#45;&gt;Mul26 -->
<g id="edge26" class="edge">
<title>Expr24&#45;&gt;Mul26</title>
<path fill="none" stroke="black" d="M659.36,-575.7C659.25,-568.41 659.13,-559.73 659.01,-551.54"/>
<polygon fill="black" stroke="black" points="662.51,-551.57 658.87,-541.62 655.51,-551.67 662.51,-551.57"/>
</g>
<!-- ExprContinuous27 -->
<g id="node28" class="node">
<title>ExprContinuous27</title>
<ellipse fill="none" stroke="black" cx="858.6" cy="-522" rx="71.52" ry="18"/>
<text text-anchor="middle" x="858.6" y="-516.58" font-family="Times New Roman,serif" font-size="14.00">ExprContinuous</text>
</g>
<!-- Expr24&#45;&gt;ExprContinuous27 -->
<g id="edge27" class="edge">
<title>Expr24&#45;&gt;ExprContinuous27</title>
<path fill="none" stroke="black" d="M681.95,-582.55C687.05,-580.29 692.48,-577.98 697.6,-576 732.22,-562.6 771.8,-549.54 803.06,-539.74"/>
<polygon fill="black" stroke="black" points="803.8,-543.17 812.3,-536.86 801.72,-536.49 803.8,-543.17"/>
</g>
<!-- Atom28 -->
<g id="node29" class="node">
<title>Atom28</title>
<ellipse fill="none" stroke="black" cx="476.6" cy="-450" rx="31.6" ry="18"/>
<text text-anchor="middle" x="476.6" y="-444.57" font-family="Times New Roman,serif" font-size="14.00">Atom</text>
</g>
<!-- Mul26&#45;&gt;Atom28 -->
<g id="edge28" class="edge">
<title>Mul26&#45;&gt;Atom28</title>
<path fill="none" stroke="black" d="M635.55,-512.13C604.69,-500.27 549.61,-479.08 513.09,-465.03"/>
<polygon fill="black" stroke="black" points="514.4,-461.79 503.81,-461.46 511.89,-468.32 514.4,-461.79"/>
</g>
<!-- MulContinuous29 -->
<g id="node30" class="node">
<title>MulContinuous29</title>
<ellipse fill="none" stroke="black" cx="658.6" cy="-450" rx="68.03" ry="18"/>
<text text-anchor="middle" x="658.6" y="-444.57" font-family="Times New Roman,serif" font-size="14.00">MulContinuous</text>
</g>
<!-- Mul26&#45;&gt;MulContinuous29 -->
<g id="edge29" class="edge">
<title>Mul26&#45;&gt;MulContinuous29</title>
<path fill="none" stroke="black" d="M658.6,-503.7C658.6,-496.41 658.6,-487.73 658.6,-479.54"/>
<polygon fill="black" stroke="black" points="662.1,-479.62 658.6,-469.62 655.1,-479.62 662.1,-479.62"/>
</g>
<!-- Plus50 -->
<g id="node51" class="node">
<title>Plus50</title>
<ellipse fill="none" stroke="black" cx="822.6" cy="-450" rx="27" ry="18"/>
<text text-anchor="middle" x="822.6" y="-444.57" font-family="Times New Roman,serif" font-size="14.00">Plus</text>
</g>
<!-- ExprContinuous27&#45;&gt;Plus50 -->
<g id="edge50" class="edge">
<title>ExprContinuous27&#45;&gt;Plus50</title>
<path fill="none" stroke="black" d="M849.7,-503.7C845.62,-495.75 840.68,-486.16 836.15,-477.34"/>
<polygon fill="black" stroke="black" points="839.28,-475.78 831.6,-468.49 833.06,-478.98 839.28,-475.78"/>
</g>
<!-- Mul51 -->
<g id="node52" class="node">
<title>Mul51</title>
<ellipse fill="none" stroke="black" cx="894.6" cy="-450" rx="27" ry="18"/>
<text text-anchor="middle" x="894.6" y="-444.57" font-family="Times New Roman,serif" font-size="14.00">Mul</text>
</g>
<!-- ExprContinuous27&#45;&gt;Mul51 -->
<g id="edge51" class="edge">
<title>ExprContinuous27&#45;&gt;Mul51</title>
<path fill="none" stroke="black" d="M867.5,-503.7C871.59,-495.75 876.52,-486.16 881.05,-477.34"/>
<polygon fill="black" stroke="black" points="884.15,-478.98 885.61,-468.49 877.92,-475.78 884.15,-478.98"/>
</g>
<!-- ExprContinuous52 -->
<g id="node53" class="node">
<title>ExprContinuous52</title>
<ellipse fill="none" stroke="black" cx="1011.6" cy="-450" rx="71.52" ry="18"/>
<text text-anchor="middle" x="1011.6" y="-444.57" font-family="Times New Roman,serif" font-size="14.00">ExprContinuous</text>
</g>
<!-- ExprContinuous27&#45;&gt;ExprContinuous52 -->
<g id="edge52" class="edge">
<title>ExprContinuous27&#45;&gt;ExprContinuous52</title>
<path fill="none" stroke="black" d="M892.18,-505.64C914.4,-495.47 943.77,-482.04 967.82,-471.03"/>
<polygon fill="black" stroke="black" points="969.09,-474.3 976.73,-466.96 966.18,-467.93 969.09,-474.3"/>
</g>
<!-- Minus30 -->
<g id="node31" class="node">
<title>Minus30</title>
<ellipse fill="none" stroke="black" cx="393.6" cy="-378" rx="33.6" ry="18"/>
<text text-anchor="middle" x="393.6" y="-372.57" font-family="Times New Roman,serif" font-size="14.00">Minus</text>
</g>
<!-- Atom28&#45;&gt;Minus30 -->
<g id="edge30" class="edge">
<title>Atom28&#45;&gt;Minus30</title>
<path fill="none" stroke="black" d="M459.41,-434.5C447.91,-424.8 432.57,-411.86 419.59,-400.92"/>
<polygon fill="black" stroke="black" points="422.12,-398.47 412.22,-394.7 417.61,-403.82 422.12,-398.47"/>
</g>
<!-- Atom31 -->
<g id="node32" class="node">
<title>Atom31</title>
<ellipse fill="none" stroke="black" cx="476.6" cy="-378" rx="31.6" ry="18"/>
<text text-anchor="middle" x="476.6" y="-372.57" font-family="Times New Roman,serif" font-size="14.00">Atom</text>
</g>
<!-- Atom28&#45;&gt;Atom31 -->
<g id="edge31" class="edge">
<title>Atom28&#45;&gt;Atom31</title>
<path fill="none" stroke="black" d="M476.6,-431.7C476.6,-424.41 476.6,-415.73 476.6,-407.54"/>
<polygon fill="black" stroke="black" points="480.1,-407.62 476.6,-397.62 473.1,-407.62 480.1,-407.62"/>
</g>
<!-- Multiply33 -->
<g id="node34" class="node">
<title>Multiply33</title>
<ellipse fill="none" stroke="black" cx="567.6" cy="-378" rx="41.08" ry="18"/>
<text text-anchor="middle" x="567.6" y="-372.57" font-family="Times New Roman,serif" font-size="14.00">Multiply</text>
</g>
<!-- MulContinuous29&#45;&gt;Multiply33 -->
<g id="edge33" class="edge">
<title>MulContinuous29&#45;&gt;Multiply33</title>
<path fill="none" stroke="black" d="M637.5,-432.76C625.21,-423.31 609.56,-411.27 596.18,-400.98"/>
<polygon fill="black" stroke="black" points="598.61,-398.43 588.55,-395.11 594.34,-403.98 598.61,-398.43"/>
</g>
<!-- Atom34 -->
<g id="node35" class="node">
<title>Atom34</title>
<ellipse fill="none" stroke="black" cx="658.6" cy="-378" rx="31.6" ry="18"/>
<text text-anchor="middle" x="658.6" y="-372.57" font-family="Times New Roman,serif" font-size="14.00">Atom</text>
</g>
<!-- MulContinuous29&#45;&gt;Atom34 -->
<g id="edge34" class="edge">
<title>MulContinuous29&#45;&gt;Atom34</title>
<path fill="none" stroke="black" d="M658.6,-431.7C658.6,-424.41 658.6,-415.73 658.6,-407.54"/>
<polygon fill="black" stroke="black" points="662.1,-407.62 658.6,-397.62 655.1,-407.62 662.1,-407.62"/>
</g>
<!-- MulContinuous35 -->
<g id="node36" class="node">
<title>MulContinuous35</title>
<ellipse fill="none" stroke="black" cx="776.6" cy="-378" rx="68.03" ry="18"/>
<text text-anchor="middle" x="776.6" y="-372.57" font-family="Times New Roman,serif" font-size="14.00">MulContinuous</text>
</g>
<!-- MulContinuous29&#45;&gt;MulContinuous35 -->
<g id="edge35" class="edge">
<title>MulContinuous29&#45;&gt;MulContinuous35</title>
<path fill="none" stroke="black" d="M685.38,-433.12C701.67,-423.45 722.7,-410.98 740.45,-400.44"/>
<polygon fill="black" stroke="black" points="741.82,-403.71 748.63,-395.59 738.24,-397.69 741.82,-403.71"/>
</g>
<!-- 332 -->
<g id="node33" class="node">
<title>332</title>
<ellipse fill="none" stroke="black" cx="476.6" cy="-306" rx="27" ry="18"/>
<text text-anchor="middle" x="476.6" y="-300.57" font-family="Times New Roman,serif" font-size="14.00">3</text>
</g>
<!-- Atom31&#45;&gt;332 -->
<g id="edge32" class="edge">
<title>Atom31&#45;&gt;332</title>
<path fill="none" stroke="black" d="M476.6,-359.7C476.6,-352.41 476.6,-343.73 476.6,-335.54"/>
<polygon fill="black" stroke="black" points="480.1,-335.62 476.6,-325.62 473.1,-335.62 480.1,-335.62"/>
</g>
<!-- Open36 -->
<g id="node37" class="node">
<title>Open36</title>
<ellipse fill="none" stroke="black" cx="580.6" cy="-306" rx="31.1" ry="18"/>
<text text-anchor="middle" x="580.6" y="-300.57" font-family="Times New Roman,serif" font-size="14.00">Open</text>
</g>
<!-- Atom34&#45;&gt;Open36 -->
<g id="edge36" class="edge">
<title>Atom34&#45;&gt;Open36</title>
<path fill="none" stroke="black" d="M642.06,-362.15C631.34,-352.53 617.18,-339.82 605.15,-329.03"/>
<polygon fill="black" stroke="black" points="607.76,-326.67 597.98,-322.59 603.08,-331.88 607.76,-326.67"/>
</g>
<!-- Expr37 -->
<g id="node38" class="node">
<title>Expr37</title>
<ellipse fill="none" stroke="black" cx="658.6" cy="-306" rx="28.61" ry="18"/>
<text text-anchor="middle" x="658.6" y="-300.57" font-family="Times New Roman,serif" font-size="14.00">Expr</text>
</g>
<!-- Atom34&#45;&gt;Expr37 -->
<g id="edge37" class="edge">
<title>Atom34&#45;&gt;Expr37</title>
<path fill="none" stroke="black" d="M658.6,-359.7C658.6,-352.41 658.6,-343.73 658.6,-335.54"/>
<polygon fill="black" stroke="black" points="662.1,-335.62 658.6,-325.62 655.1,-335.62 662.1,-335.62"/>
</g>
<!-- Close38 -->
<g id="node39" class="node">
<title>Close38</title>
<ellipse fill="none" stroke="black" cx="737.6" cy="-306" rx="32.1" ry="18"/>
<text text-anchor="middle" x="737.6" y="-300.57" font-family="Times New Roman,serif" font-size="14.00">Close</text>
</g>
<!-- Atom34&#45;&gt;Close38 -->
<g id="edge38" class="edge">
<title>Atom34&#45;&gt;Close38</title>
<path fill="none" stroke="black" d="M674.97,-362.5C685.81,-352.89 700.23,-340.11 712.51,-329.24"/>
<polygon fill="black" stroke="black" points="714.69,-331.98 719.85,-322.73 710.04,-326.74 714.69,-331.98"/>
</g>
<!-- Mul39 -->
<g id="node40" class="node">
<title>Mul39</title>
<ellipse fill="none" stroke="black" cx="598.6" cy="-234" rx="27" ry="18"/>
<text text-anchor="middle" x="598.6" y="-228.57" font-family="Times New Roman,serif" font-size="14.00">Mul</text>
</g>
<!-- Expr37&#45;&gt;Mul39 -->
<g id="edge39" class="edge">
<title>Expr37&#45;&gt;Mul39</title>
<path fill="none" stroke="black" d="M645.58,-289.81C637.8,-280.73 627.74,-269 618.93,-258.72"/>
<polygon fill="black" stroke="black" points="621.75,-256.62 612.58,-251.31 616.43,-261.18 621.75,-256.62"/>
</g>
<!-- ExprContinuous40 -->
<g id="node41" class="node">
<title>ExprContinuous40</title>
<ellipse fill="none" stroke="black" cx="757.6" cy="-234" rx="71.52" ry="18"/>
<text text-anchor="middle" x="757.6" y="-228.57" font-family="Times New Roman,serif" font-size="14.00">ExprContinuous</text>
</g>
<!-- Expr37&#45;&gt;ExprContinuous40 -->
<g id="edge40" class="edge">
<title>Expr37&#45;&gt;ExprContinuous40</title>
<path fill="none" stroke="black" d="M677.22,-291.83C690.8,-282.23 709.54,-268.98 725.51,-257.69"/>
<polygon fill="black" stroke="black" points="727.15,-260.82 733.3,-252.18 723.11,-255.1 727.15,-260.82"/>
</g>
<!-- Atom41 -->
<g id="node42" class="node">
<title>Atom41</title>
<ellipse fill="none" stroke="black" cx="480.6" cy="-162" rx="31.6" ry="18"/>
<text text-anchor="middle" x="480.6" y="-156.57" font-family="Times New Roman,serif" font-size="14.00">Atom</text>
</g>
<!-- Mul39&#45;&gt;Atom41 -->
<g id="edge41" class="edge">
<title>Mul39&#45;&gt;Atom41</title>
<path fill="none" stroke="black" d="M578.85,-221.28C560.58,-210.45 533.13,-194.16 511.88,-181.55"/>
<polygon fill="black" stroke="black" points="513.7,-178.57 503.32,-176.48 510.13,-184.59 513.7,-178.57"/>
</g>
<!-- MulContinuous42 -->
<g id="node43" class="node">
<title>MulContinuous42</title>
<ellipse fill="none" stroke="black" cx="598.6" cy="-162" rx="68.03" ry="18"/>
<text text-anchor="middle" x="598.6" y="-156.57" font-family="Times New Roman,serif" font-size="14.00">MulContinuous</text>
</g>
<!-- Mul39&#45;&gt;MulContinuous42 -->
<g id="edge42" class="edge">
<title>Mul39&#45;&gt;MulContinuous42</title>
<path fill="none" stroke="black" d="M598.6,-215.7C598.6,-208.41 598.6,-199.73 598.6,-191.54"/>
<polygon fill="black" stroke="black" points="602.1,-191.62 598.6,-181.62 595.1,-191.62 602.1,-191.62"/>
</g>
<!-- Minus44 -->
<g id="node45" class="node">
<title>Minus44</title>
<ellipse fill="none" stroke="black" cx="718.6" cy="-162" rx="33.6" ry="18"/>
<text text-anchor="middle" x="718.6" y="-156.57" font-family="Times New Roman,serif" font-size="14.00">Minus</text>
</g>
<!-- ExprContinuous40&#45;&gt;Minus44 -->
<g id="edge44" class="edge">
<title>ExprContinuous40&#45;&gt;Minus44</title>
<path fill="none" stroke="black" d="M747.96,-215.7C743.55,-207.78 738.23,-198.23 733.33,-189.44"/>
<polygon fill="black" stroke="black" points="736.53,-187.98 728.6,-180.94 730.41,-191.38 736.53,-187.98"/>
</g>
<!-- Mul45 -->
<g id="node46" class="node">
<title>Mul45</title>
<ellipse fill="none" stroke="black" cx="797.6" cy="-162" rx="27" ry="18"/>
<text text-anchor="middle" x="797.6" y="-156.57" font-family="Times New Roman,serif" font-size="14.00">Mul</text>
</g>
<!-- ExprContinuous40&#45;&gt;Mul45 -->
<g id="edge45" class="edge">
<title>ExprContinuous40&#45;&gt;Mul45</title>
<path fill="none" stroke="black" d="M767.49,-215.7C772.08,-207.67 777.63,-197.95 782.72,-189.05"/>
<polygon fill="black" stroke="black" points="785.7,-190.88 787.63,-180.46 779.63,-187.4 785.7,-190.88"/>
</g>
<!-- ExprContinuous46 -->
<g id="node47" class="node">
<title>ExprContinuous46</title>
<ellipse fill="none" stroke="black" cx="914.6" cy="-162" rx="71.52" ry="18"/>
<text text-anchor="middle" x="914.6" y="-156.57" font-family="Times New Roman,serif" font-size="14.00">ExprContinuous</text>
</g>
<!-- ExprContinuous40&#45;&gt;ExprContinuous46 -->
<g id="edge46" class="edge">
<title>ExprContinuous40&#45;&gt;ExprContinuous46</title>
<path fill="none" stroke="black" d="M791.67,-217.81C814.71,-207.54 845.37,-193.87 870.31,-182.75"/>
<polygon fill="black" stroke="black" points="871.51,-186.04 879.22,-178.78 868.66,-179.65 871.51,-186.04"/>
</g>
<!-- 743 -->
<g id="node44" class="node">
<title>743</title>
<ellipse fill="none" stroke="black" cx="480.6" cy="-90" rx="27" ry="18"/>
<text text-anchor="middle" x="480.6" y="-84.58" font-family="Times New Roman,serif" font-size="14.00">7</text>
</g>
<!-- Atom41&#45;&gt;743 -->
<g id="edge43" class="edge">
<title>Atom41&#45;&gt;743</title>
<path fill="none" stroke="black" d="M480.6,-143.7C480.6,-136.41 480.6,-127.73 480.6,-119.54"/>
<polygon fill="black" stroke="black" points="484.1,-119.62 480.6,-109.62 477.1,-119.62 484.1,-119.62"/>
</g>
<!-- Atom47 -->
<g id="node48" class="node">
<title>Atom47</title>
<ellipse fill="none" stroke="black" cx="738.6" cy="-90" rx="31.6" ry="18"/>
<text text-anchor="middle" x="738.6" y="-84.58" font-family="Times New Roman,serif" font-size="14.00">Atom</text>
</g>
<!-- Mul45&#45;&gt;Atom47 -->
<g id="edge47" class="edge">
<title>Mul45&#45;&gt;Atom47</title>
<path fill="none" stroke="black" d="M784.8,-145.81C777.25,-136.85 767.53,-125.32 758.95,-115.14"/>
<polygon fill="black" stroke="black" points="761.89,-113.19 752.76,-107.8 756.53,-117.7 761.89,-113.19"/>
</g>
<!-- MulContinuous48 -->
<g id="node49" class="node">
<title>MulContinuous48</title>
<ellipse fill="none" stroke="black" cx="856.6" cy="-90" rx="68.03" ry="18"/>
<text text-anchor="middle" x="856.6" y="-84.58" font-family="Times New Roman,serif" font-size="14.00">MulContinuous</text>
</g>
<!-- Mul45&#45;&gt;MulContinuous48 -->
<g id="edge48" class="edge">
<title>Mul45&#45;&gt;MulContinuous48</title>
<path fill="none" stroke="black" d="M810.41,-145.81C817.67,-137.19 826.95,-126.18 835.29,-116.29"/>
<polygon fill="black" stroke="black" points="837.84,-118.69 841.61,-108.79 832.49,-114.18 837.84,-118.69"/>
</g>
<!-- 449 -->
<g id="node50" class="node">
<title>449</title>
<ellipse fill="none" stroke="black" cx="738.6" cy="-18" rx="27" ry="18"/>
<text text-anchor="middle" x="738.6" y="-12.57" font-family="Times New Roman,serif" font-size="14.00">4</text>
</g>
<!-- Atom47&#45;&gt;449 -->
<g id="edge49" class="edge">
<title>Atom47&#45;&gt;449</title>
<path fill="none" stroke="black" d="M738.6,-71.7C738.6,-64.41 738.6,-55.73 738.6,-47.54"/>
<polygon fill="black" stroke="black" points="742.1,-47.62 738.6,-37.62 735.1,-47.62 742.1,-47.62"/>
</g>
<!-- Atom53 -->
<g id="node54" class="node">
<title>Atom53</title>
<ellipse fill="none" stroke="black" cx="894.6" cy="-378" rx="31.6" ry="18"/>
<text text-anchor="middle" x="894.6" y="-372.57" font-family="Times New Roman,serif" font-size="14.00">Atom</text>
</g>
<!-- Mul51&#45;&gt;Atom53 -->
<g id="edge53" class="edge">
<title>Mul51&#45;&gt;Atom53</title>
<path fill="none" stroke="black" d="M894.6,-431.7C894.6,-424.41 894.6,-415.73 894.6,-407.54"/>
<polygon fill="black" stroke="black" points="898.1,-407.62 894.6,-397.62 891.1,-407.62 898.1,-407.62"/>
</g>
<!-- MulContinuous54 -->
<g id="node55" class="node">
<title>MulContinuous54</title>
<ellipse fill="none" stroke="black" cx="1012.6" cy="-378" rx="68.03" ry="18"/>
<text text-anchor="middle" x="1012.6" y="-372.57" font-family="Times New Roman,serif" font-size="14.00">MulContinuous</text>
</g>
<!-- Mul51&#45;&gt;MulContinuous54 -->
<g id="edge54" class="edge">
<title>Mul51&#45;&gt;MulContinuous54</title>
<path fill="none" stroke="black" d="M914.35,-437.28C931.08,-427.36 955.51,-412.87 975.82,-400.82"/>
<polygon fill="black" stroke="black" points="977.59,-403.84 984.4,-395.73 974.02,-397.82 977.59,-403.84"/>
</g>
<!-- 255 -->
<g id="node56" class="node">
<title>255</title>
<ellipse fill="none" stroke="black" cx="894.6" cy="-306" rx="27" ry="18"/>
<text text-anchor="middle" x="894.6" y="-300.57" font-family="Times New Roman,serif" font-size="14.00">2</text>
</g>
<!-- Atom53&#45;&gt;255 -->
<g id="edge55" class="edge">
<title>Atom53&#45;&gt;255</title>
<path fill="none" stroke="black" d="M894.6,-359.7C894.6,-352.41 894.6,-343.73 894.6,-335.54"/>
<polygon fill="black" stroke="black" points="898.1,-335.62 894.6,-325.62 891.1,-335.62 898.1,-335.62"/>
</g>
</g>
</svg>
